<svg xmlns="http://www.w3.org/2000/svg" xmlns:xlink="http://www.w3.org/1999/xlink" width="120" height="120" viewBox="0 0 120 120"><defs><circle id="a" cx="60" cy="60" r="60"/></defs><g fill="none" fill-rule="evenodd"><mask id="b" fill="#fff"><use xlink:href="#a"/></mask><use fill="#C8CBCE" xlink:href="#a"/><g fill="#F4F6F8" mask="url(#b)"><path fill-rule="nonzero" d="M94.87 108.803c-15.455-5.544-18.093-10.35-18.093-19.221 0-2.218.377-2.958 1.508-4.436 1.13-1.849 3.015-4.436 4.146-10.72 0-1.11.377-1.11 1.13-1.479 2.262-1.109 4.524-2.587 4.9-9.98 0-3.327-1.13-5.176-2.261-6.285.754-4.435 2.638-20.7-3.77-28.093-3.768-4.436-9.422-5.175-11.684-5.175-3.392-3.327-13.57-6.285-26.384-1.11-14.7 5.915-14.7 18.483-12.816 28.834.377 2.217.754 4.435.754 5.544-1.13 1.11-2.262 2.958-2.262 6.284.377 7.024 2.639 8.502 4.9 9.611.754.37 1.131.37 1.131 1.48 1.131 6.653 3.016 8.87 4.146 10.719 1.131 1.479 1.508 2.218 1.508 4.436 0 8.872-2.638 13.307-18.092 19.222-.754.37-1.131.74-1.131 1.478 0 .74.377 1.479.754 1.849.377.37.754.37 1.13.739.754-.37 1.885-1.109 3.016-1.109.377 0 .754-.37 1.13-.37 13.193-5.175 17.34-10.72 17.34-21.44 0-3.326-1.132-4.805-2.262-6.653-1.131-1.479-2.639-3.697-3.77-9.611-.376-2.957-2.261-3.697-3.392-4.066-1.13-.37-2.261-1.11-2.638-6.654 0-2.957 1.13-3.697 1.13-3.697.754-.37 1.131-1.109 1.131-1.848 0 0-.754-2.957-1.13-6.654-1.508-9.241-1.131-19.591 10.93-24.397 12.439-4.805 21.108-1.478 22.239.37.377.37 1.13.74 1.507.74h.377c1.131 0 6.408 0 9.8 4.065 4.9 5.915 3.393 21.07 2.639 25.876 0 .74.377 1.479 1.13 1.848 0 0 1.508.74 1.508 3.697-.377 5.545-1.507 6.284-2.638 6.654-1.131.37-2.639 1.109-3.393 4.066-1.13 5.914-2.638 7.762-3.769 9.61-1.13 1.48-2.261 2.958-2.261 6.655 0 10.72 4.146 15.895 17.338 21.44 1.508.369 3.016 1.108 4.146 1.478.377-.37.754-.37.754-.74.377-.369.754-1.108.754-1.848 0-.37-.377-1.109-1.13-1.109z"/></g></g></svg>