<svg xmlns="http://www.w3.org/2000/svg" width="36" height="32" viewBox="0 0 36 32"><path fill="#94A3B3" d="M23.63 0C17.3 0 12.103 4.32 11.702 9.76 5.668 10.06 0 14.358 0 20.174c0 2.428.97 4.786 2.743 6.65A4.2 4.2 0 0 1 1.61 30.81.694.694 0 0 0 2.103 32a7.8 7.8 0 0 0 5.373-2.15c1.4.473 3.228.759 4.894.759 6.33 0 11.527-4.32 11.928-9.753 1.47-.063 3.003-.334 4.212-.745a7.86 7.86 0 0 0 5.387 2.15.694.694 0 0 0 .493-1.19 4.2 4.2 0 0 1-1.133-3.986C35.03 15.221 36 12.863 36 10.435 36.007 4.39 29.903 0 23.63 0zM12.377 29.217c-1.66 0-3.551-.32-4.817-.82a.722.722 0 0 0-.78.173 6.354 6.354 0 0 1-3.158 1.85 5.59 5.59 0 0 0 .429-4.138.762.762 0 0 0-.169-.292c-1.596-1.621-2.475-3.687-2.475-5.816 0-4.904 5.02-9.044 10.97-9.044 5.62 0 10.55 3.861 10.55 9.044 0 4.988-4.734 9.043-10.55 9.043z" opacity=".395"/></svg>