<svg xmlns="http://www.w3.org/2000/svg" xmlns:xlink="http://www.w3.org/1999/xlink" width="24" height="24" viewBox="0 0 24 24"><defs><path id="a" d="M22 4.5V2H2v2.5c0 .765.346 1.45.889 1.908A3.318 3.318 0 0 0 2 8.667 3.337 3.337 0 0 0 5.333 12v10H7v-8.333h2.118a3.295 3.295 0 0 0-.451 1.666V22h1.666v-6.667a1.668 1.668 0 0 1 3.334 0h1.666c0-.607-.165-1.175-.45-1.666H17V22h1.667V12A3.337 3.337 0 0 0 22 8.667c0-.872-.34-1.664-.889-2.259A2.494 2.494 0 0 0 22 4.5zM3.667 3.667h16.666V4.5c0 .46-.373.833-.833.833h-15a.834.834 0 0 1-.833-.833v-.833zM17 12H7v-.45a3.356 3.356 0 0 0 1.216-1.217h7.569A3.35 3.35 0 0 0 17 11.549V12zm1.667-1.667c-.92 0-1.667-.747-1.667-1.666H7a1.668 1.668 0 0 1-3.333 0c0-.92.747-1.667 1.666-1.667h13.334a1.668 1.668 0 0 1 0 3.333zm-4.902 6.569h1.568V22h-1.568v-5.098z"/></defs><g fill="none" fill-rule="evenodd"><mask id="b" fill="#fff"><use xlink:href="#a"/></mask><use fill="#c8cbce" fill-rule="nonzero" xlink:href="#a"/><g fill="#c8cbce" mask="url(#b)"><path d="M0 0h24v24H0z"/></g></g></svg>