<svg height="8" viewBox="0 0 13 8" width="13" xmlns="http://www.w3.org/2000/svg"><path d="m565.360389 202.767344h.777059s.234724-.0271.354556-.16297c.110303-.124733.106773-.358979.106773-.358979s-.015178-1.096613.468742-1.258098c.477036-.159072 1.089612 1.059861 1.738896 1.528538.490979.354711.864066.276938.864066.276938l1.736073-.025429s.908186-.05884.477565-.809838c-.035296-.061439-.250783-.555546-1.290803-1.570859-1.088554-1.062645-.942778-.890766.368498-2.72891.79859-1.119444 1.11785-1.802878 1.018136-2.095593-.095125-.278793-.682463-.205104-.682463-.205104l-1.954737.012807s-.144893-.020789-.252372.046775c-.105008.066265-.172601.220696-.172601.220696s-.309377.866265-.721996 1.602971c-.870419 1.554524-1.218446 1.636566-1.360692 1.540046-.330907-.224965-.248313-.903759-.248313-1.385986 0-1.506451.217252-2.134571-.423032-2.29717-.212487-.054014-.368852-.089652-.912246-.095406-.697464-.00761-1.287803.002227-1.622064.174478-.22237.114524-.393912.369745-.289434.384408.129187.018191.421797.08297.576926.305151.20031.28659.19325.930302.19325.930302s.115068 1.773365-.268785 1.99369c-.26349.15109-.62493-.157402-1.40093-1.567704-.397618-.722413-.697817-1.520928-.697817-1.520928s-.057887-.149235-.16113-.229049c-.125304-.096705-.300376-.127517-.300376-.127517l-1.857494.012807s-.278845.008167-.381205.135684c-.091066.113411-.007236.348028-.007236.348028s1.454228 3.578285 3.100824 5.381533c1.50982 1.653272 3.224362 1.544688 3.224362 1.544688z" fill="#4d76a1" fill-rule="evenodd" transform="translate(-559 -195)"/></svg>