<svg xmlns="http://www.w3.org/2000/svg" xmlns:xlink="http://www.w3.org/1999/xlink" width="24" height="24" viewBox="0 0 24 24"><defs><path id="a" d="M12 23C5.934 23 1 18.065 1 12 1 5.934 5.934 1 12 1s11 4.934 11 11c0 6.065-4.934 11-11 11zm.628-10.372v3.709a.629.629 0 0 1-1.257 0v-3.71H7.663a.628.628 0 1 1 0-1.256h3.708V7.663a.63.63 0 0 1 1.257 0v3.708h3.71a.629.629 0 0 1 0 1.257h-3.71zM12 2.257c-5.373 0-9.743 4.37-9.743 9.743 0 5.372 4.37 9.742 9.743 9.742 5.372 0 9.743-4.37 9.743-9.742 0-5.372-4.37-9.743-9.743-9.743z"/></defs><g fill="none" fill-rule="evenodd"><mask id="b" fill="#fff"><use xlink:href="#a"/></mask><use fill="#ee2e42" fill-rule="nonzero" xlink:href="#a"/><g fill="#ee2e42" mask="url(#b)"><path d="M0 0h24v24H0z"/></g></g></svg>