<svg xmlns="http://www.w3.org/2000/svg" xmlns:xlink="http://www.w3.org/1999/xlink" width="27" height="27" viewBox="0 0 27 27"><defs><path id="a" d="M16.936 6.945a.603.603 0 0 0 .01-.114v-4.8a.6.6 0 0 0-.6-.6h-3.368l-.012-.013H2.106a.703.703 0 0 0-.702.702v9.824c0 .388.314.702.701.702h1.45c.388 0 .702.315.702.702v2.583l3.007-3.074a.702.702 0 0 1 .502-.21h8.468a.703.703 0 0 0 .702-.703V6.945zM14.726.001h1.621a2 2 0 0 1 2 2v2c0 .058-.003.116-.008.173v7.77a2.108 2.108 0 0 1-2.105 2.106H8.06l-4.004 4.093a.702.702 0 0 1-1.203-.49V14.05h-.749A2.108 2.108 0 0 1 0 11.944V2.12C0 .96.944.015 2.105.015h10.003A2.02 2.02 0 0 1 12.347 0h2.38z"/></defs><g fill="none" fill-rule="evenodd"><g transform="translate(3 6)"><mask id="b" fill="#fff"><use xlink:href="#a"/></mask><use fill="#1A1E25" fill-rule="nonzero" xlink:href="#a"/><g fill="#A3A5A8" mask="url(#b)"><path d="M-3-3h24v24H-3z"/></g></g><circle cx="20" cy="7" r="5" fill="#EE2E42"/></g></svg>