<svg xmlns="http://www.w3.org/2000/svg" xmlns:xlink="http://www.w3.org/1999/xlink" width="24" height="24" viewBox="0 0 24 24"><defs><path id="a" d="M8.669 16.5c.4 0 .722.335.722.75s-.323.75-.722.75H2.167C.972 18 0 16.99 0 15.75V2.25C0 1.01.972 0 2.167 0H8.67c.4 0 .722.335.722.75s-.323.75-.722.75H2.167a.737.737 0 0 0-.722.75v13.5c0 .414.323.75.722.75H8.67zm9.113-8.017a.725.725 0 0 1 0 1.034l-4.438 4.36a.728.728 0 0 1-1.033-.007.724.724 0 0 1 .008-1.027l3.172-3.116h-8.5a.728.728 0 1 1 0-1.454h8.5l-3.172-3.116a.724.724 0 0 1-.008-1.027.732.732 0 0 1 1.033-.008l4.438 4.36z"/></defs><g fill="none" fill-rule="evenodd" transform="translate(3 3)"><mask id="b" fill="#fff"><use xlink:href="#a"/></mask><use fill="#c8cbce" fill-rule="nonzero" xlink:href="#a"/><g fill="#c8cbce" mask="url(#b)"><path d="M-3-3h24v24H-3z"/></g></g></svg>