<svg xmlns="http://www.w3.org/2000/svg" xmlns:xlink="http://www.w3.org/1999/xlink" width="24" height="24" viewBox="0 0 24 24"><defs><path id="a" d="M12 2c5.514 0 10 4.486 10 10s-4.486 10-10 10S2 17.514 2 12 6.486 2 12 2zm-.636 13.783h1.739v1.739h-1.74v-1.74zM12 20.75c4.825 0 8.75-3.925 8.75-8.75S16.825 3.25 12 3.25 3.25 7.175 3.25 12s3.925 8.75 8.75 8.75zm-.636-14.402h1.739v7.7h-1.74v-7.7z"/></defs><g fill="none" fill-rule="evenodd"><path fill="#f5a623" fill-opacity="0" d="M0 0h24v24H0z"/><mask id="b" fill="#fff"><use xlink:href="#a"/></mask><use fill="#f5a623" fill-rule="nonzero" xlink:href="#a"/><g fill="#f5a623" mask="url(#b)"><path d="M0 0h24v24H0z"/></g></g></svg>