<svg height="18" viewBox="0 0 20 18" width="20" xmlns="http://www.w3.org/2000/svg" xmlns:xlink="http://www.w3.org/1999/xlink"><defs><path id="a" d="m17.9362182 7.32193307h-.4520098v-2.71233999c0-1.10906298-.9040197-2.00798771-2.0106645-2.00798771h-.4169401l.0038966-1.0078853c0-.74715822-.6078753-1.35422427-1.3560295-1.35422427h-12.05619362c-.90012305 0-1.63658737.72380952-1.64827728 1.62273425v.0233487 13.28540705c0 .7471582.60787531 1.3542243 1.35602953 1.3542243h14.12141097c1.1105415 0 2.0106645-.9028162 2.0106645-2.0079877v-2.7162315h.4520098c.5844955 0 1.0598852-.4747568 1.0598852-1.0584741v-2.36210958c-.0038966-.58371736-.4792863-1.05847415-1.0637818-1.05847415zm-15.41386863-5.82193307h10.52212723c.2006482 0 .3672882.15694824.3672882.34986377l-.0034008.85013628h-10.88601463c-.3434825 0-.62234947-.2681199-.62234947-.59836515 0-.33024524.27886697-.6016349.62234947-.6016349zm13.46000363 12.5134219c0 .530375-.4529706.9630493-1.0082248.9630493h-13.23842941c-.21552631 0-.39452273-.1674868-.39452273-.3768454v-10.57609596c.20456734.09421134.43105261.14655098.67214983.14655098h12.96080231c.5552542 0 1.0082248.43267434 1.0082248.96304932v2.43204847h-2.9917974c-.5479483 0-.9936128.42569572-.9936128.94909209v2.1180106c0 .5233964.4456645.9490921.9936128.9490921h2.9917974zm1.5647054-3.5928203c0 .0479706-.0442364.085281-.1011118.085281h-3.709541c-.0568755 0-.1011119-.0373104-.1011119-.085281v-1.61767336c0-.04530551.0442364-.08528097.1011119-.08528097h3.709541c.0537156 0 .1011118.03731043.1011118.08528097z"/><mask id="b" fill="#fff"><use fill="#fff" fill-rule="evenodd" xlink:href="#a"/></mask></defs><g fill="none" fill-rule="evenodd" transform="translate(.5 .5)"><use fill="#fff" fill-opacity=".6" fill-rule="nonzero" xlink:href="#a"/><g fill="#c8cbce" mask="url(#b)"><path d="m0 0h27v27h-27z" transform="translate(-4.071429 -5.189076)"/></g></g></svg>