<svg height="8" viewBox="0 0 10 8" width="10" xmlns="http://www.w3.org/2000/svg"><path d="m598.843999 195.947077c-.362082.160557-.751577.269152-1.160049.31765.417057-.249872.737117-.645241.888186-1.117123-.390248.231498-.822668.399435-1.2825.489956-.368408-.392356-.893307-.63756-1.474537-.63756-1.115165 0-2.019617.904453-2.019617 2.019618 0 .158298.017923.312379.052565.460284-1.678472-.084195-3.166714-.888186-4.162892-2.11044-.173812.298221-.27352.645393-.27352 1.015458 0 .700517.356811 1.318949.898428 1.681031-.330905-.010392-.64253-.101214-.914694-.252885-.000151.008585-.000151.01717-.000151.025605 0 .978556.696451 1.794747 1.620183 1.980156-.169293.04639-.348075.07094-.531978.07094-.130434 0-.256802-.012501-.380006-.035997.256952.802184 1.002655 1.386125 1.886623 1.402542-.69133.541768-1.562044.864539-2.508519.864539-.162666 0-.323825-.009489-.481521-.028316.893307.573247 1.955154.907465 3.095623.907465 3.714807 0 5.746324-3.077398 5.746324-5.746475 0-.087508-.001958-.174715-.005874-.261169.394916-.284665.737268-.640271 1.007926-1.045279z" fill="#3aa6ff" transform="translate(-589 -195)"/></svg>