<svg xmlns="http://www.w3.org/2000/svg" xmlns:xlink="http://www.w3.org/1999/xlink" width="12" height="12" viewBox="0 0 12 12"><defs><path id="a" d="M10.413 6.125l1.545-3.47a.485.485 0 0 0-.024-.442A.424.424 0 0 0 11.57 2H1.43c-.238 0-.43.205-.43.458v7.334c0 .253.192.458.43.458h10.14c.148 0 .285-.08.364-.213a.485.485 0 0 0 .024-.442l-1.545-3.47zM1.86 9.333V2.917h9.031L9.55 5.928a.486.486 0 0 0 0 .394l1.34 3.011H1.86z"/></defs><g fill="none" fill-rule="evenodd"><mask id="b" fill="#fff"><use xlink:href="#a"/></mask><use fill="#1A1E25" fill-rule="nonzero" opacity=".3" xlink:href="#a"/><g fill="#A3A5A8" mask="url(#b)"><path d="M0 0h12v12H0z"/></g></g></svg>