<svg height="90" viewBox="0 0 610 90" width="610" xmlns="http://www.w3.org/2000/svg"><g fill="none"><path d="M353.7 56.1c0 12-10.5 17.2-21.8 17.2-10.5 0-18.4-4-22.5-12.4l13.6-7.7c1.4 4 4.3 6.2 8.9 6.2 3.8 0 5.6-1.2 5.6-3.2 0-5.8-25.7-2.7-25.7-20.8 0-11.4 9.6-17.2 20.5-17.2 8.5 0 16 3.8 20.4 11.2l-13.4 7.2c-1.5-2.7-3.6-4.6-7-4.6-2.7 0-4.4 1-4.4 2.9.1 5.8 25.8 1.8 25.8 21.2zm37 3.1c4.3 0 7.9-1.7 10-4l12.6 7.2c-5.1 7.1-12.9 10.8-22.8 10.8-17.9 0-29-12-29-27.6S372.8 18 389.3 18c15.3 0 26.6 11.8 26.6 27.6 0 2.2-.2 4.3-.6 6.3h-37.1c2 5.4 6.8 7.3 12.5 7.3zm9.7-19c-1.7-6.1-6.4-8.3-11.1-8.3-6 0-9.9 2.9-11.4 8.3zm22.4 23.1c0-5.4 4.5-9.9 9.9-9.9s9.9 4.5 9.9 9.9-4.5 9.9-9.9 9.9-9.9-4.5-9.9-9.9zm111.9-23.6v32.1H519V41c0-5.2-2.5-8.6-7.5-8.6-5.2 0-8.2 3.7-8.2 9.8v29.5h-15.7V41c0-5.2-2.5-8.6-7.5-8.6-5.2 0-8.2 3.7-8.2 9.8v29.5h-15.7V19.4h15.7v4.8c2.4-3.6 7-6.3 14-6.3 6.2 0 10.8 2.5 13.7 6.9 2.9-4.2 7.7-6.9 15.2-6.9 12 .1 19.9 8.7 19.9 21.8zm40.5 19.5c4.3 0 7.9-1.7 10-4l12.6 7.2c-5.1 7.1-12.9 10.8-22.8 10.8-17.9 0-29-12-29-27.6S557.3 18 573.8 18c15.3 0 26.6 11.8 26.6 27.6 0 2.2-.2 4.3-.6 6.3h-37.1c1.9 5.4 6.7 7.3 12.5 7.3zm9.6-19c-1.7-6.1-6.4-8.3-11.1-8.3-6 0-9.9 2.9-11.4 8.3zm-555.1 19c4.3 0 7.9-1.7 10-4l12.6 7.2c-5.1 7.1-12.9 10.8-22.8 10.8-17.9 0-29-12-29-27.6C.5 30 11.8 18 28.3 18c15.3 0 26.6 11.8 26.6 27.6 0 2.2-.2 4.3-.6 6.3H17.2c1.9 5.4 6.7 7.3 12.5 7.3zm9.6-19c-1.7-6.1-6.4-8.3-11.1-8.3-6 0-9.9 2.9-11.4 8.3zm56.2 31.6L85.8 58l-9.7 13.8h-18l18.7-26.6-18.1-25.7h18l9.1 13 9.1-13h18L94.8 45.2l18.7 26.6zm20.6-26.2c0-15.6 11.8-27.6 27.7-27.6 10.1 0 19.1 5.3 23.6 13.4l-13.7 7.9c-1.8-3.7-5.5-5.9-10.1-5.9-6.8 0-11.8 4.9-11.8 12.1s5 12.1 11.8 12.1c4.6 0 8.5-2.2 10.1-5.9l13.7 7.8C162.9 67.7 154 73 143.8 73c-15.9.2-27.7-11.8-27.7-27.4zm110.8-26.1v52.3h-15.7v-4.9c-2.8 3.9-8.1 6.4-15 6.4-10.6 0-19.6-7.5-19.6-21.7V19.5h15.7v29.8c0 6.5 4.1 9.5 9.1 9.5 5.8 0 9.7-3.3 9.7-10.8V19.4h15.8z" fill="#1a1e25"/><path d="M300.9 36.8c0-13.2-8.4-24.4-20.1-28.7-5.2-2-10.7-2.5-16-1.6-8.1 1.4-15.5 6-20.3 13.3-2 3.1-3.4 6.5-4.2 10-.1.5-.3 2.7-.3 2.7v51.6l38.3-17.2 5.5-2.6s-.1 0-.2.1c10.1-4.9 17.3-15.4 17.3-27.6z" fill="#f5a623"/><path d="M281.8 65.2l-3.6 1.7-38.3 17.2h53.3l-6.6-11z" fill="#ee2e42"/><path d="M281.5 18v17.8c-6.5-1-15.7 1.6-15.7 11.9v14.6l-15.7 7.1V34.6c0-1.5-.2-7.9 3.4-11.5 4.5-4.5 10.5-4 10.5-4h1.8v9.3c2.1-7 9.1-10.4 15.7-10.4z" fill="#1a1e25"/></g></svg>