<svg xmlns="http://www.w3.org/2000/svg" xmlns:xlink="http://www.w3.org/1999/xlink" width="24" height="24" viewBox="0 0 24 24"><defs><path id="a" d="M14.727 0h1.62a2 2 0 0 1 2 2v2c0 .06-.003.117-.008.174v7.77a2.108 2.108 0 0 1-2.105 2.106H8.06l-4.004 4.093a.702.702 0 0 1-1.203-.49V14.05h-.749A2.108 2.108 0 0 1 0 11.944V2.12C0 .96.944.015 2.105.015h10.003A2.02 2.02 0 0 1 12.347 0h2.38z"/></defs><g transform="translate(3 3)" fill="none" fill-rule="evenodd"><mask id="b" fill="#fff"><use xlink:href="#a"/></mask><use fill="#1A1E25" fill-rule="nonzero" xlink:href="#a"/><g fill="#EE2E42" mask="url(#b)"><path d="M-3-3h24v24H-3z"/></g></g></svg>