<svg height="12" viewBox="0 0 12 12" xmlns="http://www.w3.org/2000/svg"><mask id="a" fill="#fff"><path d="M10.9 10.3l-.3-1.2c-.2-.7-.7-1.3-1.4-1.6l-.8-.4C8.2 7 8 6.8 8 6.6l-.2-.4c.6-.7.9-1.6.9-2.5v-.3C8.7 2 7.5.9 6 .9S3.3 2 3.3 3.4v.3c0 .9.3 1.8.9 2.4l-.2.5c0 .2-.2.4-.4.5l-.8.4c-.7.3-1.2.9-1.4 1.6l-.3 1.2c0 .1 0 .2.1.3s.2.1.3.1h9.1c.1 0 .2-.1.3-.1 0 0 .1-.2 0-.3zM6 1.6c1 0 1.9.8 1.9 1.8v.3c0 1.1-.5 2.1-1.4 2.7-.2.1-.3.2-.5.2s-.3 0-.5-.1c-.2-.3-.4-.5-.6-.7-.5-.6-.8-1.3-.8-2.1v-.3c0-1 .9-1.8 1.9-1.8zM4.8 6.8c.1.1.2.1.3.2.3.2.6.3.9.3s.6-.1.9-.3c.1-.1.2-.1.3-.2.1.4.4.8.8.9l.9.4c.5.2.9.7 1 1.2l.2.7H1.9l.2-.7c.1-.5.5-.9 1-1.2l.9-.4c.4-.1.7-.5.8-.9z" fill-rule="evenodd"/></mask><g fill="#a3a5a8" fill-rule="evenodd" mask="url(#a)"><path d="M0 0h12v12H0z"/></g></svg>