<svg xmlns="http://www.w3.org/2000/svg" xmlns:xlink="http://www.w3.org/1999/xlink" width="12" height="12" viewBox="0 0 12 12"><defs><path id="a" d="M9.826 5.625a.613.613 0 0 0 .146-.613.578.578 0 0 0-.464-.408L7.571 4.31a.254.254 0 0 1-.19-.144l-.866-1.832A.568.568 0 0 0 6 2a.568.568 0 0 0-.514.334L4.62 4.166a.254.254 0 0 1-.191.144l-1.937.294a.578.578 0 0 0-.464.408.613.613 0 0 0 .146.614l1.401 1.426a.27.27 0 0 1 .073.234l-.33 2.013c-.03.177.015.35.125.486.17.211.469.276.707.145l1.732-.95a.25.25 0 0 1 .236 0l1.732.95c.085.047.175.07.267.07.17 0 .33-.079.44-.215a.604.604 0 0 0 .126-.486l-.331-2.013a.272.272 0 0 1 .073-.234l1.401-1.427z"/></defs><g fill="none" fill-rule="evenodd"><mask id="b" fill="#fff"><use xlink:href="#a"/></mask><use fill="#F5A623" xlink:href="#a"/><g fill="#F5A623" mask="url(#b)"><path d="M-2-2h17v16H-2z"/></g></g></svg>